<svg width="177" height="74" viewBox="0 0 177 74" fill="none" xmlns="http://www.w3.org/2000/svg">
<path d="M27.3 73.4C18.9667 73.4 12.3333 71 7.4 66.2C2.46667 61.3333 2.38419e-07 54.2667 2.38419e-07 45V29C2.38419e-07 19.7333 2.46667 12.7 7.4 7.9C12.3333 3.03333 18.9667 0.599995 27.3 0.599995C35.5667 0.599995 41.9 2.9 46.3 7.5C50.7667 12.1 53 18.4 53 26.4V26.9H44.7V26.1C44.7 20.8333 43.2667 16.5333 40.4 13.2C37.6 9.8 33.2333 8.09999 27.3 8.09999C21.3667 8.09999 16.7333 9.93333 13.4 13.6C10.0667 17.2 8.4 22.2667 8.4 28.8V45.2C8.4 51.7333 10.0667 56.8333 13.4 60.5C16.7333 64.1 21.3667 65.9 27.3 65.9C33.2333 65.9 37.6 64.2333 40.4 60.9C43.2667 57.5 44.7 53.1667 44.7 47.9V46.3H53V47.6C53 55.6 50.7667 61.9 46.3 66.5C41.9 71.1 35.5667 73.4 27.3 73.4Z" fill="#ECF0F3"/>
<path d="M91.5602 73.4C83.2268 73.4 76.5602 71 71.5602 66.2C66.6268 61.3333 64.1602 54.2667 64.1602 45V29C64.1602 19.7333 66.6268 12.7 71.5602 7.9C76.5602 3.03333 83.2268 0.599995 91.5602 0.599995C99.9602 0.599995 106.627 3.03333 111.56 7.9C116.56 12.7 119.06 19.7333 119.06 29V45C119.06 54.2667 116.56 61.3333 111.56 66.2C106.627 71 99.9602 73.4 91.5602 73.4ZM91.5602 65.9C97.6268 65.9 102.327 64.1 105.66 60.5C108.993 56.8333 110.66 51.7667 110.66 45.3V28.7C110.66 22.2333 108.993 17.2 105.66 13.6C102.327 9.93333 97.6268 8.09999 91.5602 8.09999C85.5602 8.09999 80.8935 9.93333 77.5602 13.6C74.2268 17.2 72.5602 22.2333 72.5602 28.7V45.3C72.5602 51.7667 74.2268 56.8333 77.5602 60.5C80.8935 64.1 85.5602 65.9 91.5602 65.9ZM133.055 72V2H176.155V9.6H141.455V33H173.355V40.6H141.455V64.4H176.655V72H133.055Z" fill="#FCB00B"/>
</svg>
