<svg width="87" height="46" viewBox="0 0 87 46" fill="none" xmlns="http://www.w3.org/2000/svg">
<path d="M2.55006 26.11C1.81006 26.11 1.21006 25.9 0.750059 25.48C0.290059 25.06 0.0600586 24.48 0.0600586 23.74C0.0600586 22.9 0.370059 22.05 0.990059 21.19C1.05006 21.13 1.10006 21.1 1.14006 21.1C1.20006 21.1 1.23006 21.14 1.23006 21.22C1.23006 21.22 1.20006 21.29 1.14006 21.43C1.10006 21.55 1.03006 21.73 0.930059 21.97C0.850059 22.21 0.780059 22.44 0.720059 22.66C0.660059 22.88 0.630059 23.1 0.630059 23.32C0.630059 23.92 0.820059 24.46 1.20006 24.94C1.56006 25.42 2.05006 25.66 2.67006 25.66C5.05006 25.66 7.44006 24.49 9.84006 22.15C11.9401 20.07 13.7101 17.48 15.1501 14.38C16.5501 11.44 17.2501 8.81999 17.2501 6.51999C17.2501 6.41999 17.2501 6.32999 17.2501 6.24999C17.2501 6.16999 17.2401 6.08999 17.2201 6.00999C17.0601 6.08999 16.8601 6.16999 16.6201 6.24999C16.3801 6.30999 16.1001 6.35999 15.7801 6.39999C15.5801 7.43999 15.3001 8.49999 14.9401 9.57999C14.6001 10.66 14.2001 11.76 13.7401 12.88C12.8401 15.02 11.8001 17.02 10.6201 18.88C9.88006 20.06 9.14006 21.07 8.40006 21.91C7.68006 22.75 6.95006 23.42 6.21006 23.92C5.45006 24.42 4.75006 24.67 4.11006 24.67C3.91006 24.67 3.81006 24.61 3.81006 24.49C3.81006 24.37 3.90006 24.3 4.08006 24.28C4.34006 24.24 4.56006 24.19 4.74006 24.13C4.94006 24.07 5.11006 24.02 5.25006 23.98C6.91006 23.24 8.60006 21.52 10.3201 18.82C10.9801 17.78 11.5901 16.71 12.1501 15.61C12.7301 14.51 13.2401 13.37 13.6801 12.19C14.4201 10.29 14.9901 8.37999 15.3901 6.45999C15.1901 6.47999 14.7801 6.52999 14.1601 6.60999C13.5401 6.68999 12.7201 6.77999 11.7001 6.87999C10.5801 6.99999 9.62006 7.12999 8.82006 7.26999C8.02006 7.38999 7.39006 7.50999 6.93006 7.62999C4.67006 8.22999 3.54006 9.10999 3.54006 10.27C3.54006 11.13 3.98006 12.02 4.86006 12.94C5.66006 13.72 6.54006 14.23 7.50006 14.47C7.62006 14.49 7.68006 14.52 7.68006 14.56C7.68006 14.64 7.60006 14.68 7.44006 14.68C6.34006 14.68 5.33006 14.22 4.41006 13.3C3.51006 12.36 3.06006 11.35 3.06006 10.27C3.06006 9.04999 3.94006 8.03999 5.70006 7.23999C6.34006 6.93999 7.11006 6.65999 8.01006 6.39999C8.93006 6.13999 9.97006 5.91999 11.1301 5.73999C11.8901 5.61999 12.6401 5.50999 13.3801 5.40999C14.1401 5.28999 14.9001 5.17999 15.6601 5.07999C15.7401 4.49999 15.8001 3.84999 15.8401 3.12999C15.8801 2.40999 15.9001 1.63999 15.9001 0.819986C15.9001 0.679986 15.9601 0.609985 16.0801 0.609985C16.1401 0.609985 16.1801 0.649985 16.2001 0.729986C16.2201 0.949986 16.2301 1.17999 16.2301 1.41999C16.2501 1.65999 16.2601 1.91999 16.2601 2.19999C16.2601 2.63999 16.2401 3.09999 16.2001 3.57999C16.1601 4.03999 16.1001 4.51999 16.0201 5.01999C16.3001 4.97999 16.5401 4.92999 16.7401 4.86999C16.9401 4.80999 17.1101 4.75999 17.2501 4.71999C17.3501 4.57999 17.4801 4.50999 17.6401 4.50999C17.8401 4.50999 17.9701 4.70999 18.0301 5.10999C18.0301 5.22999 18.0301 5.35999 18.0301 5.49999C18.0501 5.63999 18.0701 5.77999 18.0901 5.91999C18.1101 6.05999 18.1401 6.23999 18.1801 6.45999C18.2201 6.67999 18.2701 6.92999 18.3301 7.20999L18.8701 10.15C19.2701 12.33 19.6901 14.22 20.1301 15.82C20.5901 17.42 21.0501 18.75 21.5101 19.81C21.9101 18.93 22.3401 17.29 22.8001 14.89C23.5001 11.37 24.0701 8.96999 24.5101 7.68999C25.5101 4.88999 26.9201 2.97999 28.7401 1.95999C29.2801 1.65999 29.8201 1.50999 30.3601 1.50999C31.2801 1.50999 32.1601 2.03999 33.0001 3.09999C33.8401 4.07999 34.2601 5.02999 34.2601 5.94999C34.2601 6.02999 34.2301 6.06999 34.1701 6.06999C34.1101 6.06999 34.0501 5.98999 33.9901 5.82999C33.7501 5.00999 33.3801 4.34999 32.8801 3.84999C32.3201 3.24999 31.6401 2.94999 30.8401 2.94999C30.4201 2.94999 29.9901 3.05999 29.5501 3.27999C27.7501 4.09999 26.3001 5.87999 25.2001 8.61999C24.9401 9.25999 24.6401 10.17 24.3001 11.35C23.9801 12.51 23.6201 13.92 23.2201 15.58C23.0801 16.26 22.9501 16.8 22.8301 17.2C22.7301 17.6 22.6601 17.87 22.6201 18.01C22.3801 18.91 22.1101 19.7 21.8101 20.38C22.6301 22.06 23.5401 22.9 24.5401 22.9C25.1001 22.9 25.6901 22.65 26.3101 22.15C26.9501 21.63 27.2501 21.37 27.2101 21.37C27.2501 21.37 27.2701 21.4 27.2701 21.46C27.2701 21.56 27.2101 21.66 27.0901 21.76C25.9501 22.92 24.8201 23.5 23.7001 23.5C22.6401 23.5 21.6701 22.9 20.7901 21.7C20.5901 21.82 20.3601 21.88 20.1001 21.88C19.7001 21.88 19.5001 21.76 19.5001 21.52C19.5001 21.46 19.6001 21.41 19.8001 21.37C20.0801 21.31 20.2901 21.24 20.4301 21.16C19.5701 19.78 18.9401 17.77 18.5401 15.13C18.5001 14.83 18.4201 14.15 18.3001 13.09C18.1801 12.01 18.0401 10.55 17.8801 8.70999C17.4001 11.43 16.3701 14.13 14.7901 16.81C13.1501 19.55 11.2801 21.76 9.18006 23.44C6.98006 25.22 4.77006 26.11 2.55006 26.11Z" fill="white"/>
<path d="M33.3062 22.42C32.7662 22.42 32.3462 22.14 32.0462 21.58C31.8062 21.12 31.6862 20.59 31.6862 19.99C31.6862 19.69 31.7062 19.36 31.7462 19C31.8062 18.62 31.8862 18.21 31.9862 17.77C30.7262 20.57 29.4262 21.97 28.0862 21.97C27.2662 21.97 26.8562 21.44 26.8562 20.38C26.8562 18.68 27.6762 16.92 29.3162 15.1C30.9762 13.24 32.6262 12.31 34.2662 12.31C35.0462 12.31 35.4362 12.65 35.4362 13.33C35.4362 14.17 34.8762 15.01 33.7562 15.85C33.1762 17.29 32.8862 18.77 32.8862 20.29C32.8862 21.43 33.1362 22 33.6362 22C34.2962 22 35.4962 20.74 37.2362 18.22C37.3562 18.06 37.4462 17.98 37.5062 17.98C37.5662 17.98 37.5962 18.02 37.5962 18.1C37.5962 18.2 37.5562 18.3 37.4762 18.4C35.6762 21.08 34.2862 22.42 33.3062 22.42ZM28.2062 21.04C29.4662 21.04 30.6862 19.64 31.8662 16.84C31.7062 16.88 31.5562 16.92 31.4162 16.96C31.2962 16.98 31.1862 16.99 31.0862 16.99C31.0062 16.99 30.9662 16.96 30.9662 16.9C30.9662 16.8 31.1062 16.7 31.3862 16.6C31.4862 16.54 31.6162 16.47 31.7762 16.39C31.9362 16.29 32.1162 16.18 32.3162 16.06C32.3562 15.72 32.5662 15.28 32.9462 14.74C33.3262 14.18 33.6862 13.9 34.0262 13.9C34.1462 13.9 34.2062 13.99 34.2062 14.17C34.2062 14.31 34.1562 14.53 34.0562 14.83C34.3762 14.39 34.5362 13.96 34.5362 13.54C34.5362 13.08 34.3262 12.85 33.9062 12.85C32.9062 12.85 31.5962 13.83 29.9762 15.79C28.3562 17.77 27.5462 19.29 27.5462 20.35C27.5462 20.81 27.7662 21.04 28.2062 21.04Z" fill="white"/>
<path d="M40.1792 22.57C38.7592 22.57 38.0492 21.65 38.0492 19.81C38.0492 19.53 38.0592 19.23 38.0792 18.91C38.1192 18.57 38.1792 18.21 38.2592 17.83C38.1792 17.77 38.0992 17.69 38.0192 17.59C37.9392 17.47 37.8592 17.33 37.7792 17.17C37.8592 17.19 37.9392 17.23 38.0192 17.29C38.1192 17.33 38.2392 17.37 38.3792 17.41C38.5992 16.41 39.1992 15.42 40.1792 14.44C41.2392 13.36 42.2392 12.82 43.1792 12.82C43.3992 12.82 43.5092 12.85 43.5092 12.91C43.5092 12.95 43.3692 13.05 43.0892 13.21C42.3492 13.61 41.6592 14.23 41.0192 15.07C40.3392 15.91 39.8492 16.75 39.5492 17.59C39.5692 17.61 39.5792 17.62 39.5792 17.62C39.5792 17.62 39.5892 17.63 39.6092 17.65C40.5692 17.65 41.5692 17.19 42.6092 16.27C43.6492 15.35 44.1692 14.41 44.1692 13.45C44.1692 13.17 44.0892 12.9 43.9292 12.64C43.7892 12.4 43.5692 12.28 43.2692 12.28C42.8892 12.28 42.4392 12.43 41.9192 12.73C41.4192 13.05 41.1392 13.21 41.0792 13.21C41.0392 13.21 41.0192 13.2 41.0192 13.18C41.0192 12.94 41.3692 12.68 42.0692 12.4C42.6692 12.16 43.1392 12.04 43.4792 12.04C43.9592 12.04 44.3392 12.17 44.6192 12.43C44.9392 12.69 45.0992 13.05 45.0992 13.51C45.0992 14.57 44.4092 15.6 43.0292 16.6C41.7892 17.48 40.5892 17.97 39.4292 18.07C39.2692 18.55 39.1892 19.01 39.1892 19.45C39.1892 21.11 39.7892 21.94 40.9892 21.94C41.9092 21.94 42.8692 21.54 43.8692 20.74C44.7092 20.08 45.4092 19.28 45.9692 18.34C46.1492 18.06 46.2992 17.92 46.4192 17.92C46.4392 17.92 46.4492 17.94 46.4492 17.98C46.4492 18.06 46.3692 18.24 46.2092 18.52C45.5892 19.5 44.7192 20.4 43.5992 21.22C42.3792 22.12 41.2392 22.57 40.1792 22.57Z" fill="white"/>
<path d="M49.9869 22.72C48.9869 22.72 48.4869 22.11 48.4869 20.89C48.4869 20.01 48.7069 18.92 49.1469 17.62C49.0669 17.36 48.9269 17.13 48.7269 16.93C48.5269 16.71 48.2669 16.53 47.9469 16.39C47.6869 16.27 47.4169 16.16 47.1369 16.06C46.8769 15.96 46.6069 15.85 46.3269 15.73C46.0669 15.61 45.9369 15.4 45.9369 15.1C45.9369 14.78 46.0769 14.59 46.3569 14.53H47.1669C48.2269 14.53 49.3369 14.41 50.4969 14.17L50.5269 14.11L52.5069 9.72999C52.6069 9.50999 52.7269 9.22999 52.8669 8.88999C53.0069 8.54999 53.1769 8.15999 53.3769 7.71999C53.5369 7.35999 53.9269 7.17999 54.5469 7.17999C54.9669 7.17999 55.1769 7.27999 55.1769 7.47999C55.1769 7.53999 54.8069 8.37999 54.0669 9.99999C53.3069 11.68 52.8869 12.56 52.8069 12.64C52.7669 12.68 52.6969 12.75 52.5969 12.85C52.5169 12.93 52.4169 13.02 52.2969 13.12C52.2169 13.26 52.0969 13.5 51.9369 13.84C52.2369 13.74 52.7469 13.57 53.4669 13.33C54.2069 13.07 55.1569 12.74 56.3169 12.34C56.3969 12.32 56.4669 12.31 56.5269 12.31C56.5869 12.29 56.6269 12.28 56.6469 12.28C56.7269 12.28 56.7669 12.3 56.7669 12.34C56.7669 12.68 55.0769 13.33 51.6969 14.29C51.2969 15.07 50.9569 15.74 50.6769 16.3C50.3969 16.84 50.1869 17.28 50.0469 17.62C49.7869 18.26 49.5869 18.88 49.4469 19.48C49.3269 20.06 49.2669 20.63 49.2669 21.19C49.2669 21.85 49.4869 22.18 49.9269 22.18C50.4669 22.18 51.1769 21.8 52.0569 21.04C52.5169 20.64 52.8569 20.35 53.0769 20.17C53.2969 19.97 53.4069 19.87 53.4069 19.87C53.4669 19.87 53.4969 19.9 53.4969 19.96C53.4969 20.02 53.4669 20.11 53.4069 20.23C53.0869 20.71 52.5769 21.22 51.8769 21.76C51.0569 22.4 50.4269 22.72 49.9869 22.72ZM49.2669 17.2C49.4069 16.8 49.5569 16.39 49.7169 15.97C49.8969 15.55 50.0869 15.12 50.2869 14.68C49.7869 14.8 49.2769 14.91 48.7569 15.01C48.2569 15.11 47.7569 15.2 47.2569 15.28C48.2969 15.82 48.9669 16.46 49.2669 17.2Z" fill="white"/>
<path d="M55.5598 22.21C54.7798 22.21 54.3898 21.71 54.3898 20.71C54.3898 19.49 54.8498 18.24 55.7698 16.96C55.4498 16.18 55.2898 15.35 55.2898 14.47C55.2898 13.61 55.4598 12.86 55.7998 12.22C56.4598 10.96 57.2798 10.33 58.2598 10.33C59.4998 10.33 60.2198 11.39 60.4198 13.51C61.4198 13.55 61.9198 14.07 61.9198 15.07C61.9198 15.89 61.7898 16.3 61.5298 16.3C61.4498 16.3 61.4098 16.24 61.4098 16.12C61.4098 16.08 61.4098 16.04 61.4098 16C61.4298 15.96 61.4498 15.91 61.4698 15.85C61.4698 15.77 61.4698 15.71 61.4698 15.67C61.4898 15.61 61.4998 15.57 61.4998 15.55C61.4998 15.23 61.3998 14.97 61.1998 14.77C60.9798 14.55 60.7298 14.44 60.4498 14.44C60.2098 16.88 59.6198 18.75 58.6798 20.05H59.6098C59.3498 20.21 59.1198 20.29 58.9198 20.29C58.8598 20.29 58.8098 20.28 58.7698 20.26C58.7098 20.24 58.6498 20.23 58.5898 20.23C58.6698 20.23 58.3198 20.56 57.5398 21.22C56.7598 21.88 56.0998 22.21 55.5598 22.21ZM56.0998 16.63C57.3198 14.99 58.5998 13.97 59.9398 13.57C59.5398 11.85 58.9898 10.99 58.2898 10.99C57.6498 10.99 57.0598 11.62 56.5198 12.88C56.3398 13.28 56.2098 13.71 56.1298 14.17C56.0498 14.61 56.0098 15.07 56.0098 15.55C56.0098 15.93 56.0398 16.29 56.0998 16.63ZM57.7198 19.9C58.1998 19.46 58.6898 18.6 59.1898 17.32C59.7098 16 59.9698 15.03 59.9698 14.41C59.5298 14.47 58.8398 14.88 57.8998 15.64C56.9798 16.38 56.4098 16.97 56.1898 17.41C56.6098 18.93 57.1198 19.76 57.7198 19.9ZM55.6498 21.31C56.2098 21.31 56.8598 20.89 57.5998 20.05C56.9398 19.97 56.3998 19.18 55.9798 17.68C55.3198 18.78 54.9898 19.64 54.9898 20.26C54.9898 20.96 55.2098 21.31 55.6498 21.31Z" fill="white"/>
<path d="M33.4101 45.24C33.2301 45.24 33.1401 45.17 33.1401 45.03C33.1401 44.93 33.2001 44.87 33.3201 44.85C33.4001 44.83 33.4801 44.81 33.5601 44.79C33.6601 44.77 33.7701 44.75 33.8901 44.73C34.8101 44.41 35.7501 43.42 36.7101 41.76C34.6501 41.7 33.0401 41.15 31.8801 40.11C30.6401 38.99 30.0201 37.41 30.0201 35.37C30.0201 32.99 30.9101 30.53 32.6901 27.99C34.3501 25.63 36.3201 23.87 38.6001 22.71C38.0601 22.65 37.6301 22.62 37.3101 22.62C36.5301 22.62 35.7301 22.71 34.9101 22.89C34.3701 23.03 33.8601 23.19 33.3801 23.37C32.9001 23.55 32.4601 23.76 32.0601 24C30.9001 24.68 30.3201 25.44 30.3201 26.28C30.3201 26.38 30.3301 26.46 30.3501 26.52V26.73C30.3501 27.01 30.2601 27.15 30.0801 27.15C29.8401 27.15 29.6601 26.99 29.5401 26.67C29.3801 26.31 29.3001 26.01 29.3001 25.77C29.3001 24.59 30.3601 23.68 32.4801 23.04C34.0401 22.58 35.5901 22.35 37.1301 22.35C37.3701 22.35 37.6501 22.37 37.9701 22.41C38.2901 22.43 38.6401 22.46 39.0201 22.5C39.5001 22.28 39.9701 22.09 40.4301 21.93C40.9101 21.75 41.3901 21.61 41.8701 21.51C41.8901 21.19 41.9001 20.88 41.9001 20.58C41.9001 20.28 41.9001 20 41.9001 19.74C41.9001 19.64 41.9001 19.52 41.9001 19.38C41.9001 19.24 41.8901 19.07 41.8701 18.87C41.8501 18.67 41.8401 18.5 41.8401 18.36C41.8401 18.2 41.8401 18.08 41.8401 18C41.8401 17.84 41.8901 17.76 41.9901 17.76C42.0301 17.76 42.0701 17.81 42.1101 17.91C42.2701 18.49 42.3501 19.26 42.3501 20.22C42.3501 20.4 42.3501 20.59 42.3501 20.79C42.3501 20.99 42.3401 21.2 42.3201 21.42C42.7001 21.34 43.0701 21.28 43.4301 21.24C43.7901 21.2 44.1401 21.18 44.4801 21.18C46.2801 21.18 47.6801 21.65 48.6801 22.59C49.2001 23.05 49.6101 23.62 49.9101 24.3C50.2101 24.98 50.3601 25.76 50.3601 26.64V26.76C50.3601 27.1 50.2201 27.27 49.9401 27.27C49.8001 27.27 49.6201 27.21 49.4001 27.09C48.5401 26.57 47.8101 26.14 47.2101 25.8C46.6301 25.46 46.1901 25.21 45.8901 25.05C44.5901 24.37 43.3401 23.84 42.1401 23.46C42.0001 24.86 41.7901 26.29 41.5101 27.75C41.2301 29.19 40.9001 30.68 40.5201 32.22C40.0801 33.86 39.6201 35.38 39.1401 36.78C38.6801 38.18 38.1701 39.46 37.6101 40.62C37.7301 40.64 37.8501 40.65 37.9701 40.65C38.1101 40.65 38.2501 40.65 38.3901 40.65C39.5101 40.65 40.6101 40.51 41.6901 40.23C42.7901 39.95 43.8801 39.54 44.9601 39C46.0801 38.42 47.0701 37.77 47.9301 37.05C48.7901 36.33 49.5101 35.51 50.0901 34.59C50.2501 34.35 50.3501 34.23 50.3901 34.23V34.32C50.3901 34.4 50.3801 34.48 50.3601 34.56C50.3601 34.62 50.3401 34.68 50.3001 34.74C49.1401 36.74 47.2201 38.43 44.5401 39.81C42.0001 41.07 39.5001 41.72 37.0401 41.76C35.7401 44.08 34.5301 45.24 33.4101 45.24ZM49.1901 25.59C49.3301 25.59 49.4001 25.49 49.4001 25.29C49.4001 25.09 49.3401 24.86 49.2201 24.6C48.7001 23.7 47.8401 23.02 46.6401 22.56C45.6001 22.14 44.5001 21.93 43.3401 21.93C43.1601 21.93 42.9801 21.94 42.8001 21.96C42.6201 21.96 42.4401 21.97 42.2601 21.99C42.2401 22.13 42.2201 22.29 42.2001 22.47C42.2001 22.65 42.1901 22.83 42.1701 23.01C43.3101 23.25 44.4301 23.58 45.5301 24C46.6501 24.4 47.7401 24.89 48.8001 25.47C48.9601 25.55 49.0901 25.59 49.1901 25.59ZM41.7801 22.92C41.8001 22.76 41.8101 22.61 41.8101 22.47C41.8101 22.31 41.8201 22.16 41.8401 22.02C41.4601 22.08 41.0801 22.16 40.7001 22.26C40.3401 22.34 39.9901 22.45 39.6501 22.59C40.0501 22.65 40.4201 22.71 40.7601 22.77C41.1201 22.81 41.4601 22.86 41.7801 22.92ZM37.3101 40.59C38.4101 38.35 39.3701 35.54 40.1901 32.16C40.5701 30.66 40.8901 29.18 41.1501 27.72C41.4101 26.24 41.6101 24.78 41.7501 23.34C41.3301 23.22 40.9101 23.12 40.4901 23.04C40.0701 22.94 39.6301 22.85 39.1701 22.77C38.1101 23.27 37.1301 23.92 36.2301 24.72C35.3301 25.52 34.5301 26.48 33.8301 27.6C32.3901 29.82 31.6701 32.12 31.6701 34.5C31.6701 36.3 32.1701 37.71 33.1701 38.73C34.1701 39.83 35.5501 40.45 37.3101 40.59Z" fill="white"/>
<path d="M51.22 39.21C50.44 39.21 50.05 38.71 50.05 37.71C50.05 36.49 50.51 35.24 51.43 33.96C51.11 33.18 50.95 32.35 50.95 31.47C50.95 30.61 51.12 29.86 51.46 29.22C52.12 27.96 52.94 27.33 53.92 27.33C55.16 27.33 55.88 28.39 56.08 30.51C57.08 30.55 57.58 31.07 57.58 32.07C57.58 32.89 57.45 33.3 57.19 33.3C57.11 33.3 57.07 33.24 57.07 33.12C57.07 33.08 57.07 33.04 57.07 33C57.09 32.96 57.11 32.91 57.13 32.85C57.13 32.77 57.13 32.71 57.13 32.67C57.15 32.61 57.16 32.57 57.16 32.55C57.16 32.23 57.06 31.97 56.86 31.77C56.64 31.55 56.39 31.44 56.11 31.44C55.87 33.88 55.28 35.75 54.34 37.05H55.27C55.01 37.21 54.78 37.29 54.58 37.29C54.52 37.29 54.47 37.28 54.43 37.26C54.37 37.24 54.31 37.23 54.25 37.23C54.33 37.23 53.98 37.56 53.2 38.22C52.42 38.88 51.76 39.21 51.22 39.21ZM51.76 33.63C52.98 31.99 54.26 30.97 55.6 30.57C55.2 28.85 54.65 27.99 53.95 27.99C53.31 27.99 52.72 28.62 52.18 29.88C52 30.28 51.87 30.71 51.79 31.17C51.71 31.61 51.67 32.07 51.67 32.55C51.67 32.93 51.7 33.29 51.76 33.63ZM53.38 36.9C53.86 36.46 54.35 35.6 54.85 34.32C55.37 33 55.63 32.03 55.63 31.41C55.19 31.47 54.5 31.88 53.56 32.64C52.64 33.38 52.07 33.97 51.85 34.41C52.27 35.93 52.78 36.76 53.38 36.9ZM51.31 38.31C51.87 38.31 52.52 37.89 53.26 37.05C52.6 36.97 52.06 36.18 51.64 34.68C50.98 35.78 50.65 36.64 50.65 37.26C50.65 37.96 50.87 38.31 51.31 38.31Z" fill="white"/>
<path d="M65.1496 39.51C63.9896 39.51 63.4096 38.67 63.4096 36.99C63.4096 36.17 63.5896 34.95 63.9496 33.33C63.5296 34.13 63.1496 34.82 62.8096 35.4C62.4696 35.98 62.1796 36.44 61.9396 36.78C60.8596 38.26 59.8696 39 58.9696 39C58.0296 39 57.5596 38.38 57.5596 37.14C57.5596 35.24 58.5696 33.22 60.5896 31.08C62.6096 28.94 64.5896 27.76 66.5296 27.54C66.9696 26.48 67.3996 25.47 67.8196 24.51C68.2396 23.55 68.6396 22.64 69.0196 21.78C69.1796 21.44 69.3596 21.05 69.5596 20.61C69.7796 20.17 70.0196 19.68 70.2796 19.14C70.6196 18.68 71.1596 18.45 71.8996 18.45C72.1796 18.45 72.3196 18.52 72.3196 18.66C72.3196 18.66 72.2996 18.7 72.2596 18.78C72.0996 19.1 71.8796 19.51 71.5996 20.01C71.3396 20.49 71.0396 21.06 70.6996 21.72C70.1396 22.76 69.6096 23.79 69.1096 24.81C68.6096 25.81 68.1296 26.78 67.6696 27.72C67.9096 27.78 68.0296 27.96 68.0296 28.26C68.0296 28.62 67.7896 29.21 67.3096 30.03C67.0496 30.43 66.8196 30.77 66.6196 31.05C66.4196 31.31 66.2396 31.5 66.0796 31.62C65.6996 32.4 65.3696 33.38 65.0896 34.56C64.7896 35.72 64.6396 36.71 64.6396 37.53C64.6396 38.51 64.8996 39 65.4196 39C66.0396 39 66.7696 38.46 67.6096 37.38C67.8896 37.04 68.4296 36.23 69.2296 34.95C69.3296 34.83 69.3996 34.77 69.4396 34.77C69.4996 34.77 69.5296 34.8 69.5296 34.86C69.5296 34.86 69.5096 34.92 69.4696 35.04C67.9296 38.02 66.4896 39.51 65.1496 39.51ZM59.1196 37.89C60.5796 37.89 62.0096 36.26 63.4096 33C63.0296 33.12 62.7196 33.18 62.4796 33.18C62.3996 33.18 62.3596 33.14 62.3596 33.06C62.3596 32.96 62.4996 32.86 62.7796 32.76C63.0596 32.66 63.3896 32.48 63.7696 32.22C63.8496 32.02 63.9296 31.8 64.0096 31.56C64.1096 31.3 64.1996 31.02 64.2796 30.72C64.3396 30.56 64.4096 30.48 64.4896 30.48C64.6296 30.48 64.6996 30.57 64.6996 30.75C64.6996 30.93 64.6096 31.26 64.4296 31.74C64.5296 31.66 64.6196 31.59 64.6996 31.53C64.7996 31.45 64.8896 31.39 64.9696 31.35C65.1696 30.85 65.3696 30.34 65.5696 29.82C65.7896 29.3 66.0096 28.77 66.2296 28.23C64.7096 28.57 63.0296 29.66 61.1896 31.5C59.2696 33.42 58.3096 35.11 58.3096 36.57C58.3096 37.45 58.5796 37.89 59.1196 37.89Z" fill="white"/>
<path d="M71.9624 39.57C70.5424 39.57 69.8324 38.65 69.8324 36.81C69.8324 36.53 69.8424 36.23 69.8624 35.91C69.9024 35.57 69.9624 35.21 70.0424 34.83C69.9624 34.77 69.8824 34.69 69.8024 34.59C69.7224 34.47 69.6424 34.33 69.5624 34.17C69.6424 34.19 69.7224 34.23 69.8024 34.29C69.9024 34.33 70.0224 34.37 70.1624 34.41C70.3824 33.41 70.9824 32.42 71.9624 31.44C73.0224 30.36 74.0224 29.82 74.9624 29.82C75.1824 29.82 75.2924 29.85 75.2924 29.91C75.2924 29.95 75.1524 30.05 74.8724 30.21C74.1324 30.61 73.4424 31.23 72.8024 32.07C72.1224 32.91 71.6324 33.75 71.3324 34.59C71.3524 34.61 71.3624 34.62 71.3624 34.62C71.3624 34.62 71.3724 34.63 71.3924 34.65C72.3524 34.65 73.3524 34.19 74.3924 33.27C75.4324 32.35 75.9524 31.41 75.9524 30.45C75.9524 30.17 75.8724 29.9 75.7124 29.64C75.5724 29.4 75.3524 29.28 75.0524 29.28C74.6724 29.28 74.2224 29.43 73.7024 29.73C73.2024 30.05 72.9224 30.21 72.8624 30.21C72.8224 30.21 72.8024 30.2 72.8024 30.18C72.8024 29.94 73.1524 29.68 73.8524 29.4C74.4524 29.16 74.9224 29.04 75.2624 29.04C75.7424 29.04 76.1224 29.17 76.4024 29.43C76.7224 29.69 76.8824 30.05 76.8824 30.51C76.8824 31.57 76.1924 32.6 74.8124 33.6C73.5724 34.48 72.3724 34.97 71.2124 35.07C71.0524 35.55 70.9724 36.01 70.9724 36.45C70.9724 38.11 71.5724 38.94 72.7724 38.94C73.6924 38.94 74.6524 38.54 75.6524 37.74C76.4924 37.08 77.1924 36.28 77.7524 35.34C77.9324 35.06 78.0824 34.92 78.2024 34.92C78.2224 34.92 78.2324 34.94 78.2324 34.98C78.2324 35.06 78.1524 35.24 77.9924 35.52C77.3724 36.5 76.5024 37.4 75.3824 38.22C74.1624 39.12 73.0224 39.57 71.9624 39.57Z" fill="white"/>
<path d="M81.2901 39.36C80.3501 39.36 79.5001 38.97 78.7401 38.19C78.0001 37.39 77.6301 36.52 77.6301 35.58C77.6301 34.96 77.7901 34.65 78.1101 34.65C78.3101 34.65 78.5101 34.8 78.7101 35.1C79.3101 33.7 80.1601 32.12 81.2601 30.36C81.9601 29.28 82.7801 28.74 83.7201 28.74C83.9201 28.74 84.1501 28.81 84.4101 28.95C84.6901 29.11 84.8301 29.28 84.8301 29.46C84.8301 29.6 84.7001 29.67 84.4401 29.67C84.4201 29.67 84.3901 29.67 84.3501 29.67C84.3101 29.67 84.2601 29.66 84.2001 29.64H83.9601C83.5001 29.64 83.1101 29.77 82.7901 30.03C82.4501 30.31 82.2801 30.66 82.2801 31.08C82.2801 31.24 82.3101 31.41 82.3701 31.59C82.4901 31.99 82.6101 32.39 82.7301 32.79C82.8501 33.19 82.9701 33.59 83.0901 33.99C83.2301 34.47 83.3301 34.92 83.3901 35.34C83.4701 35.74 83.5101 36.11 83.5101 36.45C84.0501 36.37 84.5101 36.17 84.8901 35.85C85.1301 35.65 85.4501 35.25 85.8501 34.65C85.9101 34.57 85.9701 34.53 86.0301 34.53C86.0901 34.53 86.1201 34.57 86.1201 34.65C86.1201 34.73 86.1001 34.8 86.0601 34.86C85.3801 36 84.5401 36.67 83.5401 36.87C83.4801 37.57 83.2701 38.15 82.9101 38.61C82.5301 39.11 81.9901 39.36 81.2901 39.36ZM82.2801 36.84C82.3001 36.76 82.3101 36.69 82.3101 36.63C82.3101 36.57 82.3101 36.5 82.3101 36.42C82.3101 36.16 82.2601 35.81 82.1601 35.37C82.0801 34.91 81.9601 34.35 81.8001 33.69C81.5001 32.43 81.3901 31.59 81.4701 31.17C80.9501 31.71 80.1001 33.15 78.9201 35.49C79.3001 35.69 79.6201 35.87 79.8801 36.03C80.1601 36.17 80.3801 36.28 80.5401 36.36C81.1401 36.64 81.7201 36.8 82.2801 36.84ZM80.6601 38.37C81.4601 38.37 81.9901 37.98 82.2501 37.2C80.6501 37.2 79.4301 36.87 78.5901 36.21C78.6301 36.67 78.8701 37.14 79.3101 37.62C79.7501 38.12 80.2001 38.37 80.6601 38.37Z" fill="white"/>
<path d="M28.0001 35.1213C27.9502 34.6808 27.7509 34.2403 27.452 33.9649L22.3198 29.4499C21.6721 28.8992 20.7752 29.0094 20.2769 29.7252C19.7786 30.441 19.8783 31.4321 20.5261 31.9827L24.263 35.2864L20.5261 38.5901C19.8783 39.1408 19.7786 40.1319 20.2769 40.8477C20.7752 41.5635 21.6721 41.6736 22.3198 41.123L27.452 36.4978C27.8007 36.1674 28.0001 35.7269 28.0001 35.2313V35.1213Z" fill="white"/>
<path d="M4.00003 34.2366C4.04986 33.7961 4.24915 33.3557 4.54805 33.0804L9.67968 28.5657C10.3274 28.0151 11.2241 28.1253 11.7224 28.841C12.2206 29.5568 12.1209 30.5478 11.4732 31.0984L7.73666 34.4017L11.4732 37.7051C12.1209 38.2557 12.2206 39.2467 11.7224 39.9624C11.2241 40.6782 10.3274 40.7883 9.67968 40.2378L4.54805 35.613C4.19931 35.2826 4.00003 34.8422 4.00003 34.3467V34.2366Z" fill="white"/>
<path d="M15.833 29.8363L13.9769 35.2461C13.956 35.3069 12.5057 39.3578 12.5378 39.4402L15.356 40.7337C15.3952 40.7498 15.462 40.7772 15.515 40.7989C15.5679 40.8206 15.5888 40.7598 15.6097 40.699L18.9258 31.0343C19.2595 30.0617 18.8099 28.9069 17.8887 28.5987C17.0204 28.3122 16.1459 28.9245 15.833 29.8363Z" fill="white"/>
<path d="M14.6835 38.2534C15.5383 38.6037 15.9714 39.6448 15.6509 40.5789C15.3304 41.513 14.3776 41.9863 13.5228 41.6361C12.6681 41.2858 12.235 40.2447 12.5555 39.3106C12.876 38.3765 13.8287 37.9032 14.6835 38.2534Z" fill="white"/>
</svg>
