<svg width="87" height="45" viewBox="0 0 87 45" fill="none" xmlns="http://www.w3.org/2000/svg">
<path d="M2.49 25.5C1.75 25.5 1.15 25.29 0.69 24.87C0.23 24.45 0 23.87 0 23.13C0 22.29 0.31 21.44 0.93 20.58C0.99 20.52 1.04 20.49 1.08 20.49C1.14 20.49 1.17 20.53 1.17 20.61C1.17 20.61 1.14 20.68 1.08 20.82C1.04 20.94 0.97 21.12 0.87 21.36C0.79 21.6 0.72 21.83 0.66 22.05C0.6 22.27 0.57 22.49 0.57 22.71C0.57 23.31 0.76 23.85 1.14 24.33C1.5 24.81 1.99 25.05 2.61 25.05C4.99 25.05 7.38 23.88 9.78 21.54C11.88 19.46 13.65 16.87 15.09 13.77C16.49 10.83 17.19 8.21 17.19 5.91C17.19 5.81 17.19 5.72 17.19 5.64C17.19 5.56 17.18 5.48 17.16 5.4C17 5.48 16.8 5.56 16.56 5.64C16.32 5.7 16.04 5.75 15.72 5.79C15.52 6.83 15.24 7.89 14.88 8.97C14.54 10.05 14.14 11.15 13.68 12.27C12.78 14.41 11.74 16.41 10.56 18.27C9.82 19.45 9.08 20.46 8.34 21.3C7.62 22.14 6.89 22.81 6.15 23.31C5.39 23.81 4.69 24.06 4.05 24.06C3.85 24.06 3.75 24 3.75 23.88C3.75 23.76 3.84 23.69 4.02 23.67C4.28 23.63 4.5 23.58 4.68 23.52C4.88 23.46 5.05 23.41 5.19 23.37C6.85 22.63 8.54 20.91 10.26 18.21C10.92 17.17 11.53 16.1 12.09 15C12.67 13.9 13.18 12.76 13.62 11.58C14.36 9.68 14.93 7.77 15.33 5.85C15.13 5.87 14.72 5.92 14.1 6C13.48 6.08 12.66 6.17 11.64 6.27C10.52 6.39 9.56 6.52 8.76 6.66C7.96 6.78 7.33 6.9 6.87 7.02C4.61 7.62 3.48 8.5 3.48 9.66C3.48 10.52 3.92 11.41 4.8 12.33C5.6 13.11 6.48 13.62 7.44 13.86C7.56 13.88 7.62 13.91 7.62 13.95C7.62 14.03 7.54 14.07 7.38 14.07C6.28 14.07 5.27 13.61 4.35 12.69C3.45 11.75 3 10.74 3 9.66C3 8.44 3.88 7.43 5.64 6.63C6.28 6.33 7.05 6.05 7.95 5.79C8.87 5.53 9.91 5.31 11.07 5.13C11.83 5.01 12.58 4.9 13.32 4.8C14.08 4.68 14.84 4.57 15.6 4.47C15.68 3.89 15.74 3.24 15.78 2.52C15.82 1.8 15.84 1.03 15.84 0.210001C15.84 0.0700003 15.9 0 16.02 0C16.08 0 16.12 0.0400001 16.14 0.12C16.16 0.340001 16.17 0.570001 16.17 0.81C16.19 1.05 16.2 1.31 16.2 1.59C16.2 2.03 16.18 2.49 16.14 2.97C16.1 3.43 16.04 3.91 15.96 4.41C16.24 4.37 16.48 4.32 16.68 4.26C16.88 4.2 17.05 4.15 17.19 4.11C17.29 3.97 17.42 3.9 17.58 3.9C17.78 3.9 17.91 4.1 17.97 4.5C17.97 4.62 17.97 4.75 17.97 4.89C17.99 5.03 18.01 5.17 18.03 5.31C18.05 5.45 18.08 5.63 18.12 5.85C18.16 6.07 18.21 6.32 18.27 6.6L18.81 9.54C19.21 11.72 19.63 13.61 20.07 15.21C20.53 16.81 20.99 18.14 21.45 19.2C21.85 18.32 22.28 16.68 22.74 14.28C23.44 10.76 24.01 8.36 24.45 7.08C25.45 4.28 26.86 2.37 28.68 1.35C29.22 1.05 29.76 0.900001 30.3 0.900001C31.22 0.900001 32.1 1.43 32.94 2.49C33.78 3.47 34.2 4.42 34.2 5.34C34.2 5.42 34.17 5.46 34.11 5.46C34.05 5.46 33.99 5.38 33.93 5.22C33.69 4.4 33.32 3.74 32.82 3.24C32.26 2.64 31.58 2.34 30.78 2.34C30.36 2.34 29.93 2.45 29.49 2.67C27.69 3.49 26.24 5.27 25.14 8.01C24.88 8.65 24.58 9.56 24.24 10.74C23.92 11.9 23.56 13.31 23.16 14.97C23.02 15.65 22.89 16.19 22.77 16.59C22.67 16.99 22.6 17.26 22.56 17.4C22.32 18.3 22.05 19.09 21.75 19.77C22.57 21.45 23.48 22.29 24.48 22.29C25.04 22.29 25.63 22.04 26.25 21.54C26.89 21.02 27.19 20.76 27.15 20.76C27.19 20.76 27.21 20.79 27.21 20.85C27.21 20.95 27.15 21.05 27.03 21.15C25.89 22.31 24.76 22.89 23.64 22.89C22.58 22.89 21.61 22.29 20.73 21.09C20.53 21.21 20.3 21.27 20.04 21.27C19.64 21.27 19.44 21.15 19.44 20.91C19.44 20.85 19.54 20.8 19.74 20.76C20.02 20.7 20.23 20.63 20.37 20.55C19.51 19.17 18.88 17.16 18.48 14.52C18.44 14.22 18.36 13.54 18.24 12.48C18.12 11.4 17.98 9.94 17.82 8.1C17.34 10.82 16.31 13.52 14.73 16.2C13.09 18.94 11.22 21.15 9.12 22.83C6.92 24.61 4.71 25.5 2.49 25.5Z" fill="#FCB00B"/>
<path d="M33.2461 21.81C32.7061 21.81 32.2861 21.53 31.9861 20.97C31.7461 20.51 31.6261 19.98 31.6261 19.38C31.6261 19.08 31.6461 18.75 31.6861 18.39C31.7461 18.01 31.8261 17.6 31.9261 17.16C30.6661 19.96 29.3661 21.36 28.0261 21.36C27.2061 21.36 26.7961 20.83 26.7961 19.77C26.7961 18.07 27.6161 16.31 29.2561 14.49C30.9161 12.63 32.5661 11.7 34.2061 11.7C34.9861 11.7 35.3761 12.04 35.3761 12.72C35.3761 13.56 34.8161 14.4 33.6961 15.24C33.1161 16.68 32.8261 18.16 32.8261 19.68C32.8261 20.82 33.0761 21.39 33.5761 21.39C34.2361 21.39 35.4361 20.13 37.1761 17.61C37.2961 17.45 37.3861 17.37 37.4461 17.37C37.5061 17.37 37.5361 17.41 37.5361 17.49C37.5361 17.59 37.4961 17.69 37.4161 17.79C35.6161 20.47 34.2261 21.81 33.2461 21.81ZM28.1461 20.43C29.4061 20.43 30.6261 19.03 31.8061 16.23C31.6461 16.27 31.4961 16.31 31.3561 16.35C31.2361 16.37 31.1261 16.38 31.0261 16.38C30.9461 16.38 30.9061 16.35 30.9061 16.29C30.9061 16.19 31.0461 16.09 31.3261 15.99C31.4261 15.93 31.5561 15.86 31.7161 15.78C31.8761 15.68 32.0561 15.57 32.2561 15.45C32.2961 15.11 32.5061 14.67 32.8861 14.13C33.2661 13.57 33.6261 13.29 33.9661 13.29C34.0861 13.29 34.1461 13.38 34.1461 13.56C34.1461 13.7 34.0961 13.92 33.9961 14.22C34.3161 13.78 34.4761 13.35 34.4761 12.93C34.4761 12.47 34.2661 12.24 33.8461 12.24C32.8461 12.24 31.5361 13.22 29.9161 15.18C28.2961 17.16 27.4861 18.68 27.4861 19.74C27.4861 20.2 27.7061 20.43 28.1461 20.43Z" fill="#FCB00B"/>
<path d="M40.1191 21.96C38.6991 21.96 37.9891 21.04 37.9891 19.2C37.9891 18.92 37.9991 18.62 38.0191 18.3C38.0591 17.96 38.1191 17.6 38.1991 17.22C38.1191 17.16 38.0391 17.08 37.9591 16.98C37.8791 16.86 37.7991 16.72 37.7191 16.56C37.7991 16.58 37.8791 16.62 37.9591 16.68C38.0591 16.72 38.1791 16.76 38.3191 16.8C38.5391 15.8 39.1391 14.81 40.1191 13.83C41.1791 12.75 42.1791 12.21 43.1191 12.21C43.3391 12.21 43.4491 12.24 43.4491 12.3C43.4491 12.34 43.3091 12.44 43.0291 12.6C42.2891 13 41.5991 13.62 40.9591 14.46C40.2791 15.3 39.7891 16.14 39.4891 16.98C39.5091 17 39.5191 17.01 39.5191 17.01C39.5191 17.01 39.5291 17.02 39.5491 17.04C40.5091 17.04 41.5091 16.58 42.5491 15.66C43.5891 14.74 44.1091 13.8 44.1091 12.84C44.1091 12.56 44.0291 12.29 43.8691 12.03C43.7291 11.79 43.5091 11.67 43.2091 11.67C42.8291 11.67 42.3791 11.82 41.8591 12.12C41.3591 12.44 41.0791 12.6 41.0191 12.6C40.9791 12.6 40.9591 12.59 40.9591 12.57C40.9591 12.33 41.3091 12.07 42.0091 11.79C42.6091 11.55 43.0791 11.43 43.4191 11.43C43.8991 11.43 44.2791 11.56 44.5591 11.82C44.8791 12.08 45.0391 12.44 45.0391 12.9C45.0391 13.96 44.3491 14.99 42.9691 15.99C41.7291 16.87 40.5291 17.36 39.3691 17.46C39.2091 17.94 39.1291 18.4 39.1291 18.84C39.1291 20.5 39.7291 21.33 40.9291 21.33C41.8491 21.33 42.8091 20.93 43.8091 20.13C44.6491 19.47 45.3491 18.67 45.9091 17.73C46.0891 17.45 46.2391 17.31 46.3591 17.31C46.3791 17.31 46.3891 17.33 46.3891 17.37C46.3891 17.45 46.3091 17.63 46.1491 17.91C45.5291 18.89 44.6591 19.79 43.5391 20.61C42.3191 21.51 41.1791 21.96 40.1191 21.96Z" fill="#FCB00B"/>
<path d="M49.9268 22.11C48.9268 22.11 48.4268 21.5 48.4268 20.28C48.4268 19.4 48.6468 18.31 49.0868 17.01C49.0068 16.75 48.8668 16.52 48.6668 16.32C48.4668 16.1 48.2068 15.92 47.8868 15.78C47.6268 15.66 47.3568 15.55 47.0768 15.45C46.8168 15.35 46.5468 15.24 46.2668 15.12C46.0068 15 45.8768 14.79 45.8768 14.49C45.8768 14.17 46.0168 13.98 46.2968 13.92H47.1068C48.1668 13.92 49.2768 13.8 50.4368 13.56L50.4668 13.5L52.4468 9.12C52.5468 8.9 52.6668 8.62 52.8068 8.28C52.9468 7.94 53.1168 7.55 53.3168 7.11C53.4768 6.75 53.8668 6.57 54.4868 6.57C54.9068 6.57 55.1168 6.67 55.1168 6.87C55.1168 6.93 54.7468 7.77 54.0068 9.39C53.2468 11.07 52.8268 11.95 52.7468 12.03C52.7068 12.07 52.6368 12.14 52.5368 12.24C52.4568 12.32 52.3568 12.41 52.2368 12.51C52.1568 12.65 52.0368 12.89 51.8768 13.23C52.1768 13.13 52.6868 12.96 53.4068 12.72C54.1468 12.46 55.0968 12.13 56.2568 11.73C56.3368 11.71 56.4068 11.7 56.4668 11.7C56.5268 11.68 56.5668 11.67 56.5868 11.67C56.6668 11.67 56.7068 11.69 56.7068 11.73C56.7068 12.07 55.0168 12.72 51.6368 13.68C51.2368 14.46 50.8968 15.13 50.6168 15.69C50.3368 16.23 50.1268 16.67 49.9868 17.01C49.7268 17.65 49.5268 18.27 49.3868 18.87C49.2668 19.45 49.2068 20.02 49.2068 20.58C49.2068 21.24 49.4268 21.57 49.8668 21.57C50.4068 21.57 51.1168 21.19 51.9968 20.43C52.4568 20.03 52.7968 19.74 53.0168 19.56C53.2368 19.36 53.3468 19.26 53.3468 19.26C53.4068 19.26 53.4368 19.29 53.4368 19.35C53.4368 19.41 53.4068 19.5 53.3468 19.62C53.0268 20.1 52.5168 20.61 51.8168 21.15C50.9968 21.79 50.3668 22.11 49.9268 22.11ZM49.2068 16.59C49.3468 16.19 49.4968 15.78 49.6568 15.36C49.8368 14.94 50.0268 14.51 50.2268 14.07C49.7268 14.19 49.2168 14.3 48.6968 14.4C48.1968 14.5 47.6968 14.59 47.1968 14.67C48.2368 15.21 48.9068 15.85 49.2068 16.59Z" fill="#FCB00B"/>
<path d="M55.4998 21.6C54.7198 21.6 54.3298 21.1 54.3298 20.1C54.3298 18.88 54.7898 17.63 55.7098 16.35C55.3898 15.57 55.2298 14.74 55.2298 13.86C55.2298 13 55.3998 12.25 55.7398 11.61C56.3998 10.35 57.2198 9.72 58.1998 9.72C59.4398 9.72 60.1598 10.78 60.3598 12.9C61.3598 12.94 61.8598 13.46 61.8598 14.46C61.8598 15.28 61.7298 15.69 61.4698 15.69C61.3898 15.69 61.3498 15.63 61.3498 15.51C61.3498 15.47 61.3498 15.43 61.3498 15.39C61.3698 15.35 61.3898 15.3 61.4098 15.24C61.4098 15.16 61.4098 15.1 61.4098 15.06C61.4298 15 61.4398 14.96 61.4398 14.94C61.4398 14.62 61.3398 14.36 61.1398 14.16C60.9198 13.94 60.6698 13.83 60.3898 13.83C60.1498 16.27 59.5598 18.14 58.6198 19.44H59.5498C59.2898 19.6 59.0598 19.68 58.8598 19.68C58.7998 19.68 58.7498 19.67 58.7098 19.65C58.6498 19.63 58.5898 19.62 58.5298 19.62C58.6098 19.62 58.2598 19.95 57.4798 20.61C56.6998 21.27 56.0398 21.6 55.4998 21.6ZM56.0398 16.02C57.2598 14.38 58.5398 13.36 59.8798 12.96C59.4798 11.24 58.9298 10.38 58.2298 10.38C57.5898 10.38 56.9998 11.01 56.4598 12.27C56.2798 12.67 56.1498 13.1 56.0698 13.56C55.9898 14 55.9498 14.46 55.9498 14.94C55.9498 15.32 55.9798 15.68 56.0398 16.02ZM57.6598 19.29C58.1398 18.85 58.6298 17.99 59.1298 16.71C59.6498 15.39 59.9098 14.42 59.9098 13.8C59.4698 13.86 58.7798 14.27 57.8398 15.03C56.9198 15.77 56.3498 16.36 56.1298 16.8C56.5498 18.32 57.0598 19.15 57.6598 19.29ZM55.5898 20.7C56.1498 20.7 56.7998 20.28 57.5398 19.44C56.8798 19.36 56.3398 18.57 55.9198 17.07C55.2598 18.17 54.9298 19.03 54.9298 19.65C54.9298 20.35 55.1498 20.7 55.5898 20.7Z" fill="#FCB00B"/>
<path d="M33.35 44.63C33.17 44.63 33.08 44.56 33.08 44.42C33.08 44.32 33.14 44.26 33.26 44.24C33.34 44.22 33.42 44.2 33.5 44.18C33.6 44.16 33.71 44.14 33.83 44.12C34.75 43.8 35.69 42.81 36.65 41.15C34.59 41.09 32.98 40.54 31.82 39.5C30.58 38.38 29.96 36.8 29.96 34.76C29.96 32.38 30.85 29.92 32.63 27.38C34.29 25.02 36.26 23.26 38.54 22.1C38 22.04 37.57 22.01 37.25 22.01C36.47 22.01 35.67 22.1 34.85 22.28C34.31 22.42 33.8 22.58 33.32 22.76C32.84 22.94 32.4 23.15 32 23.39C30.84 24.07 30.26 24.83 30.26 25.67C30.26 25.77 30.27 25.85 30.29 25.91V26.12C30.29 26.4 30.2 26.54 30.02 26.54C29.78 26.54 29.6 26.38 29.48 26.06C29.32 25.7 29.24 25.4 29.24 25.16C29.24 23.98 30.3 23.07 32.42 22.43C33.98 21.97 35.53 21.74 37.07 21.74C37.31 21.74 37.59 21.76 37.91 21.8C38.23 21.82 38.58 21.85 38.96 21.89C39.44 21.67 39.91 21.48 40.37 21.32C40.85 21.14 41.33 21 41.81 20.9C41.83 20.58 41.84 20.27 41.84 19.97C41.84 19.67 41.84 19.39 41.84 19.13C41.84 19.03 41.84 18.91 41.84 18.77C41.84 18.63 41.83 18.46 41.81 18.26C41.79 18.06 41.78 17.89 41.78 17.75C41.78 17.59 41.78 17.47 41.78 17.39C41.78 17.23 41.83 17.15 41.93 17.15C41.97 17.15 42.01 17.2 42.05 17.3C42.21 17.88 42.29 18.65 42.29 19.61C42.29 19.79 42.29 19.98 42.29 20.18C42.29 20.38 42.28 20.59 42.26 20.81C42.64 20.73 43.01 20.67 43.37 20.63C43.73 20.59 44.08 20.57 44.42 20.57C46.22 20.57 47.62 21.04 48.62 21.98C49.14 22.44 49.55 23.01 49.85 23.69C50.15 24.37 50.3 25.15 50.3 26.03V26.15C50.3 26.49 50.16 26.66 49.88 26.66C49.74 26.66 49.56 26.6 49.34 26.48C48.48 25.96 47.75 25.53 47.15 25.19C46.57 24.85 46.13 24.6 45.83 24.44C44.53 23.76 43.28 23.23 42.08 22.85C41.94 24.25 41.73 25.68 41.45 27.14C41.17 28.58 40.84 30.07 40.46 31.61C40.02 33.25 39.56 34.77 39.08 36.17C38.62 37.57 38.11 38.85 37.55 40.01C37.67 40.03 37.79 40.04 37.91 40.04C38.05 40.04 38.19 40.04 38.33 40.04C39.45 40.04 40.55 39.9 41.63 39.62C42.73 39.34 43.82 38.93 44.9 38.39C46.02 37.81 47.01 37.16 47.87 36.44C48.73 35.72 49.45 34.9 50.03 33.98C50.19 33.74 50.29 33.62 50.33 33.62V33.71C50.33 33.79 50.32 33.87 50.3 33.95C50.3 34.01 50.28 34.07 50.24 34.13C49.08 36.13 47.16 37.82 44.48 39.2C41.94 40.46 39.44 41.11 36.98 41.15C35.68 43.47 34.47 44.63 33.35 44.63ZM49.13 24.98C49.27 24.98 49.34 24.88 49.34 24.68C49.34 24.48 49.28 24.25 49.16 23.99C48.64 23.09 47.78 22.41 46.58 21.95C45.54 21.53 44.44 21.32 43.28 21.32C43.1 21.32 42.92 21.33 42.74 21.35C42.56 21.35 42.38 21.36 42.2 21.38C42.18 21.52 42.16 21.68 42.14 21.86C42.14 22.04 42.13 22.22 42.11 22.4C43.25 22.64 44.37 22.97 45.47 23.39C46.59 23.79 47.68 24.28 48.74 24.86C48.9 24.94 49.03 24.98 49.13 24.98ZM41.72 22.31C41.74 22.15 41.75 22 41.75 21.86C41.75 21.7 41.76 21.55 41.78 21.41C41.4 21.47 41.02 21.55 40.64 21.65C40.28 21.73 39.93 21.84 39.59 21.98C39.99 22.04 40.36 22.1 40.7 22.16C41.06 22.2 41.4 22.25 41.72 22.31ZM37.25 39.98C38.35 37.74 39.31 34.93 40.13 31.55C40.51 30.05 40.83 28.57 41.09 27.11C41.35 25.63 41.55 24.17 41.69 22.73C41.27 22.61 40.85 22.51 40.43 22.43C40.01 22.33 39.57 22.24 39.11 22.16C38.05 22.66 37.07 23.31 36.17 24.11C35.27 24.91 34.47 25.87 33.77 26.99C32.33 29.21 31.61 31.51 31.61 33.89C31.61 35.69 32.11 37.1 33.11 38.12C34.11 39.22 35.49 39.84 37.25 39.98Z" fill="#FCB00B"/>
<path d="M51.1599 38.6C50.3799 38.6 49.9899 38.1 49.9899 37.1C49.9899 35.88 50.4499 34.63 51.3699 33.35C51.0499 32.57 50.8899 31.74 50.8899 30.86C50.8899 30 51.0599 29.25 51.3999 28.61C52.0599 27.35 52.8799 26.72 53.8599 26.72C55.0999 26.72 55.8199 27.78 56.0199 29.9C57.0199 29.94 57.5199 30.46 57.5199 31.46C57.5199 32.28 57.3899 32.69 57.1299 32.69C57.0499 32.69 57.0099 32.63 57.0099 32.51C57.0099 32.47 57.0099 32.43 57.0099 32.39C57.0299 32.35 57.0499 32.3 57.0699 32.24C57.0699 32.16 57.0699 32.1 57.0699 32.06C57.0899 32 57.0999 31.96 57.0999 31.94C57.0999 31.62 56.9999 31.36 56.7999 31.16C56.5799 30.94 56.3299 30.83 56.0499 30.83C55.8099 33.27 55.2199 35.14 54.2799 36.44H55.2099C54.9499 36.6 54.7199 36.68 54.5199 36.68C54.4599 36.68 54.4099 36.67 54.3699 36.65C54.3099 36.63 54.2499 36.62 54.1899 36.62C54.2699 36.62 53.9199 36.95 53.1399 37.61C52.3599 38.27 51.6999 38.6 51.1599 38.6ZM51.6999 33.02C52.9199 31.38 54.1999 30.36 55.5399 29.96C55.1399 28.24 54.5899 27.38 53.8899 27.38C53.2499 27.38 52.6599 28.01 52.1199 29.27C51.9399 29.67 51.8099 30.1 51.7299 30.56C51.6499 31 51.6099 31.46 51.6099 31.94C51.6099 32.32 51.6399 32.68 51.6999 33.02ZM53.3199 36.29C53.7999 35.85 54.2899 34.99 54.7899 33.71C55.3099 32.39 55.5699 31.42 55.5699 30.8C55.1299 30.86 54.4399 31.27 53.4999 32.03C52.5799 32.77 52.0099 33.36 51.7899 33.8C52.2099 35.32 52.7199 36.15 53.3199 36.29ZM51.2499 37.7C51.8099 37.7 52.4599 37.28 53.1999 36.44C52.5399 36.36 51.9999 35.57 51.5799 34.07C50.9199 35.17 50.5899 36.03 50.5899 36.65C50.5899 37.35 50.8099 37.7 51.2499 37.7Z" fill="#FCB00B"/>
<path d="M65.0895 38.9C63.9295 38.9 63.3495 38.06 63.3495 36.38C63.3495 35.56 63.5295 34.34 63.8895 32.72C63.4695 33.52 63.0895 34.21 62.7495 34.79C62.4095 35.37 62.1195 35.83 61.8795 36.17C60.7995 37.65 59.8095 38.39 58.9095 38.39C57.9695 38.39 57.4995 37.77 57.4995 36.53C57.4995 34.63 58.5095 32.61 60.5295 30.47C62.5495 28.33 64.5295 27.15 66.4695 26.93C66.9095 25.87 67.3395 24.86 67.7595 23.9C68.1795 22.94 68.5795 22.03 68.9595 21.17C69.1195 20.83 69.2995 20.44 69.4995 20C69.7195 19.56 69.9595 19.07 70.2195 18.53C70.5595 18.07 71.0995 17.84 71.8395 17.84C72.1195 17.84 72.2595 17.91 72.2595 18.05C72.2595 18.05 72.2395 18.09 72.1995 18.17C72.0395 18.49 71.8195 18.9 71.5395 19.4C71.2795 19.88 70.9795 20.45 70.6395 21.11C70.0795 22.15 69.5495 23.18 69.0495 24.2C68.5495 25.2 68.0695 26.17 67.6095 27.11C67.8495 27.17 67.9695 27.35 67.9695 27.65C67.9695 28.01 67.7295 28.6 67.2495 29.42C66.9895 29.82 66.7595 30.16 66.5595 30.44C66.3595 30.7 66.1795 30.89 66.0195 31.01C65.6395 31.79 65.3095 32.77 65.0295 33.95C64.7295 35.11 64.5795 36.1 64.5795 36.92C64.5795 37.9 64.8395 38.39 65.3595 38.39C65.9795 38.39 66.7095 37.85 67.5495 36.77C67.8295 36.43 68.3695 35.62 69.1695 34.34C69.2695 34.22 69.3395 34.16 69.3795 34.16C69.4395 34.16 69.4695 34.19 69.4695 34.25C69.4695 34.25 69.4495 34.31 69.4095 34.43C67.8695 37.41 66.4295 38.9 65.0895 38.9ZM59.0595 37.28C60.5195 37.28 61.9495 35.65 63.3495 32.39C62.9695 32.51 62.6595 32.57 62.4195 32.57C62.3395 32.57 62.2995 32.53 62.2995 32.45C62.2995 32.35 62.4395 32.25 62.7195 32.15C62.9995 32.05 63.3295 31.87 63.7095 31.61C63.7895 31.41 63.8695 31.19 63.9495 30.95C64.0495 30.69 64.1395 30.41 64.2195 30.11C64.2795 29.95 64.3495 29.87 64.4295 29.87C64.5695 29.87 64.6395 29.96 64.6395 30.14C64.6395 30.32 64.5495 30.65 64.3695 31.13C64.4695 31.05 64.5595 30.98 64.6395 30.92C64.7395 30.84 64.8295 30.78 64.9095 30.74C65.1095 30.24 65.3095 29.73 65.5095 29.21C65.7295 28.69 65.9495 28.16 66.1695 27.62C64.6495 27.96 62.9695 29.05 61.1295 30.89C59.2095 32.81 58.2495 34.5 58.2495 35.96C58.2495 36.84 58.5195 37.28 59.0595 37.28Z" fill="#FCB00B"/>
<path d="M71.9023 38.96C70.4823 38.96 69.7723 38.04 69.7723 36.2C69.7723 35.92 69.7823 35.62 69.8023 35.3C69.8423 34.96 69.9023 34.6 69.9823 34.22C69.9023 34.16 69.8223 34.08 69.7423 33.98C69.6623 33.86 69.5823 33.72 69.5023 33.56C69.5823 33.58 69.6623 33.62 69.7423 33.68C69.8423 33.72 69.9623 33.76 70.1023 33.8C70.3223 32.8 70.9223 31.81 71.9023 30.83C72.9623 29.75 73.9623 29.21 74.9023 29.21C75.1223 29.21 75.2323 29.24 75.2323 29.3C75.2323 29.34 75.0923 29.44 74.8123 29.6C74.0723 30 73.3823 30.62 72.7423 31.46C72.0623 32.3 71.5723 33.14 71.2723 33.98C71.2923 34 71.3023 34.01 71.3023 34.01C71.3023 34.01 71.3123 34.02 71.3323 34.04C72.2923 34.04 73.2923 33.58 74.3323 32.66C75.3723 31.74 75.8923 30.8 75.8923 29.84C75.8923 29.56 75.8123 29.29 75.6523 29.03C75.5123 28.79 75.2923 28.67 74.9923 28.67C74.6123 28.67 74.1623 28.82 73.6423 29.12C73.1423 29.44 72.8623 29.6 72.8023 29.6C72.7623 29.6 72.7423 29.59 72.7423 29.57C72.7423 29.33 73.0923 29.07 73.7923 28.79C74.3923 28.55 74.8623 28.43 75.2023 28.43C75.6823 28.43 76.0623 28.56 76.3423 28.82C76.6623 29.08 76.8223 29.44 76.8223 29.9C76.8223 30.96 76.1323 31.99 74.7523 32.99C73.5123 33.87 72.3123 34.36 71.1523 34.46C70.9923 34.94 70.9123 35.4 70.9123 35.84C70.9123 37.5 71.5123 38.33 72.7123 38.33C73.6323 38.33 74.5923 37.93 75.5923 37.13C76.4323 36.47 77.1323 35.67 77.6923 34.73C77.8723 34.45 78.0223 34.31 78.1423 34.31C78.1623 34.31 78.1723 34.33 78.1723 34.37C78.1723 34.45 78.0923 34.63 77.9323 34.91C77.3123 35.89 76.4423 36.79 75.3223 37.61C74.1023 38.51 72.9623 38.96 71.9023 38.96Z" fill="#FCB00B"/>
<path d="M81.23 38.75C80.29 38.75 79.44 38.36 78.68 37.58C77.94 36.78 77.57 35.91 77.57 34.97C77.57 34.35 77.73 34.04 78.05 34.04C78.25 34.04 78.45 34.19 78.65 34.49C79.25 33.09 80.1 31.51 81.2 29.75C81.9 28.67 82.72 28.13 83.66 28.13C83.86 28.13 84.09 28.2 84.35 28.34C84.63 28.5 84.77 28.67 84.77 28.85C84.77 28.99 84.64 29.06 84.38 29.06C84.36 29.06 84.33 29.06 84.29 29.06C84.25 29.06 84.2 29.05 84.14 29.03H83.9C83.44 29.03 83.05 29.16 82.73 29.42C82.39 29.7 82.22 30.05 82.22 30.47C82.22 30.63 82.25 30.8 82.31 30.98C82.43 31.38 82.55 31.78 82.67 32.18C82.79 32.58 82.91 32.98 83.03 33.38C83.17 33.86 83.27 34.31 83.33 34.73C83.41 35.13 83.45 35.5 83.45 35.84C83.99 35.76 84.45 35.56 84.83 35.24C85.07 35.04 85.39 34.64 85.79 34.04C85.85 33.96 85.91 33.92 85.97 33.92C86.03 33.92 86.06 33.96 86.06 34.04C86.06 34.12 86.04 34.19 86 34.25C85.32 35.39 84.48 36.06 83.48 36.26C83.42 36.96 83.21 37.54 82.85 38C82.47 38.5 81.93 38.75 81.23 38.75ZM82.22 36.23C82.24 36.15 82.25 36.08 82.25 36.02C82.25 35.96 82.25 35.89 82.25 35.81C82.25 35.55 82.2 35.2 82.1 34.76C82.02 34.3 81.9 33.74 81.74 33.08C81.44 31.82 81.33 30.98 81.41 30.56C80.89 31.1 80.04 32.54 78.86 34.88C79.24 35.08 79.56 35.26 79.82 35.42C80.1 35.56 80.32 35.67 80.48 35.75C81.08 36.03 81.66 36.19 82.22 36.23ZM80.6 37.76C81.4 37.76 81.93 37.37 82.19 36.59C80.59 36.59 79.37 36.26 78.53 35.6C78.57 36.06 78.81 36.53 79.25 37.01C79.69 37.51 80.14 37.76 80.6 37.76Z" fill="#FCB00B"/>
<path d="M27.94 34.5113C27.8902 34.0708 27.6909 33.6303 27.3919 33.355L22.2598 28.8399C21.612 28.2892 20.7151 28.3994 20.2169 29.1152C19.7186 29.831 19.8182 30.8221 20.466 31.3727L24.203 34.6764L20.466 37.9801C19.8182 38.5308 19.7186 39.5219 20.2169 40.2377C20.7151 40.9535 21.612 41.0636 22.2598 40.5131L27.3919 35.8878C27.7407 35.5574 27.94 35.1169 27.94 34.6214V34.5113Z" fill="#FCB00B"/>
<path d="M3.93997 33.6266C3.9898 33.1861 4.18909 32.7457 4.48799 32.4704L9.61962 27.9558C10.2673 27.4052 11.1641 27.5153 11.6623 28.231C12.1605 28.9468 12.0609 29.9378 11.4132 30.4884L7.6766 33.7917L11.4132 37.0951C12.0609 37.6457 12.1605 38.6368 11.6623 39.3524C11.1641 40.0682 10.2673 40.1783 9.61962 39.6278L4.48799 35.003C4.13925 34.6726 3.93997 34.2322 3.93997 33.7367V33.6266Z" fill="#FCB00B"/>
<path d="M15.773 29.2263L13.9168 34.6361C13.8959 34.6969 12.4457 38.7478 12.4777 38.8303L15.296 40.1238C15.3351 40.1398 15.4019 40.1672 15.4549 40.1889C15.5079 40.2106 15.5287 40.1498 15.5496 40.089L18.8657 30.4243C19.1994 29.4517 18.7498 28.2969 17.8287 27.9887C16.9604 27.7023 16.0858 28.3146 15.773 29.2263Z" fill="#FCB00B"/>
<path d="M14.6234 37.6434C15.4782 37.9937 15.9113 39.0348 15.5908 39.9689C15.2703 40.903 14.3175 41.3764 13.4628 41.0261C12.608 40.6758 12.1749 39.6347 12.4954 38.7006C12.8159 37.7665 13.7687 37.2932 14.6234 37.6434Z" fill="#FCB00B"/>
</svg>
