<svg width="177" height="74" viewBox="0 0 177 74" fill="none" xmlns="http://www.w3.org/2000/svg">
<path d="M27.3 73.4C18.9667 73.4 12.3333 71 7.4 66.2C2.46667 61.3333 2.38419e-07 54.2667 2.38419e-07 45V29C2.38419e-07 19.7333 2.46667 12.7 7.4 7.9C12.3333 3.03333 18.9667 0.599995 27.3 0.599995C35.5667 0.599995 41.9 2.9 46.3 7.5C50.7667 12.1 53 18.4 53 26.4V26.9H44.7V26.1C44.7 20.8333 43.2667 16.5333 40.4 13.2C37.6 9.8 33.2333 8.09999 27.3 8.09999C21.3667 8.09999 16.7333 9.93333 13.4 13.6C10.0667 17.2 8.4 22.2667 8.4 28.8V45.2C8.4 51.7333 10.0667 56.8333 13.4 60.5C16.7333 64.1 21.3667 65.9 27.3 65.9C33.2333 65.9 37.6 64.2333 40.4 60.9C43.2667 57.5 44.7 53.1667 44.7 47.9V46.3H53V47.6C53 55.6 50.7667 61.9 46.3 66.5C41.9 71.1 35.5667 73.4 27.3 73.4Z" fill="#ECF0F3"/>
<path d="M91.5602 73.4C83.2268 73.4 76.5602 71 71.5602 66.2C66.6268 61.3333 64.1602 54.2667 64.1602 45V29C64.1602 19.7333 66.6268 12.7 71.5602 7.9C76.5602 3.03333 83.2268 0.599995 91.5602 0.599995C99.9602 0.599995 106.627 3.03333 111.56 7.9C116.56 12.7 119.06 19.7333 119.06 29V45C119.06 54.2667 116.56 61.3333 111.56 66.2C106.627 71 99.9602 73.4 91.5602 73.4ZM91.5602 65.9C97.6268 65.9 102.327 64.1 105.66 60.5C108.993 56.8333 110.66 51.7667 110.66 45.3V28.7C110.66 22.2333 108.993 17.2 105.66 13.6C102.327 9.93333 97.6268 8.09999 91.5602 8.09999C85.5602 8.09999 80.8935 9.93333 77.5602 13.6C74.2268 17.2 72.5602 22.2333 72.5602 28.7V45.3C72.5602 51.7667 74.2268 56.8333 77.5602 60.5C80.8935 64.1 85.5602 65.9 91.5602 65.9ZM133.055 72V2H176.155V9.6H141.455V33H173.355V40.6H141.455V64.4H176.655V72H133.055Z" fill="#FCB00B"/>
<path d="M7.4 66.2L7.04885 66.556L7.05132 66.5584L7.4 66.2ZM7.4 7.9L7.74869 8.25837L7.75114 8.25595L7.4 7.9ZM46.3 7.5L45.9387 7.84562L45.9413 7.84831L46.3 7.5ZM53 26.9V27.4H53.5V26.9H53ZM44.7 26.9H44.2V27.4H44.7V26.9ZM40.4 13.2L40.0139 13.5179L40.0209 13.526L40.4 13.2ZM13.4 13.6L13.7669 13.9397L13.77 13.9363L13.4 13.6ZM13.4 60.5L13.03 60.8364L13.0331 60.8397L13.4 60.5ZM40.4 60.9L40.0177 60.5777L40.0171 60.5784L40.4 60.9ZM44.7 46.3V45.8H44.2V46.3H44.7ZM53 46.3H53.5V45.8H53V46.3ZM46.3 66.5L45.9413 66.1517L45.9387 66.1544L46.3 66.5ZM27.3 72.9C19.0677 72.9 12.5697 70.5323 7.74868 65.8416L7.05132 66.5584C12.097 71.4677 18.8656 73.9 27.3 73.9V72.9ZM7.75114 65.844C2.9418 61.0997 0.5 54.1795 0.5 45H-0.5C-0.5 54.3538 1.99153 61.567 7.04886 66.556L7.75114 65.844ZM0.5 45V29H-0.5V45H0.5ZM0.5 29C0.5 19.82 2.94197 12.9352 7.74868 8.25836L7.05132 7.54163C1.99136 12.4648 -0.5 19.6467 -0.5 29H0.5ZM7.75114 8.25595C12.5725 3.49978 19.0697 1.1 27.3 1.1V0.0999954C18.8636 0.0999954 12.0942 2.56688 7.04886 7.54405L7.75114 8.25595ZM27.3 1.1C35.473 1.1 41.659 3.37138 45.9387 7.84561L46.6613 7.15438C42.141 2.42862 35.6603 0.0999954 27.3 0.0999954V1.1ZM45.9413 7.84831C50.2962 12.3332 52.5 18.4962 52.5 26.4H53.5C53.5 18.3038 51.2371 11.8668 46.6587 7.15168L45.9413 7.84831ZM52.5 26.4V26.9H53.5V26.4H52.5ZM53 26.4H44.7V27.4H53V26.4ZM45.2 26.9V26.1H44.2V26.9H45.2ZM45.2 26.1C45.2 20.7385 43.7385 16.3152 40.7791 12.874L40.0209 13.526C42.7948 16.7515 44.2 20.9282 44.2 26.1H45.2ZM40.786 12.8821C37.8608 9.33012 33.3276 7.59999 27.3 7.59999V8.59999C33.139 8.59999 37.3392 10.2699 40.014 13.5179L40.786 12.8821ZM27.3 7.59999C21.256 7.59999 16.4767 9.4723 13.03 13.2637L13.77 13.9363C16.9899 10.3944 21.4773 8.59999 27.3 8.59999V7.59999ZM13.0331 13.2603C9.58906 16.9799 7.9 22.1834 7.9 28.8H8.9C8.9 22.3499 10.5443 17.4201 13.7669 13.9397L13.0331 13.2603ZM7.9 28.8V45.2H8.9V28.8H7.9ZM7.9 45.2C7.9 51.8172 9.58928 57.0515 13.03 60.8363L13.77 60.1637C10.5441 56.6152 8.9 51.6495 8.9 45.2H7.9ZM13.0331 60.8397C16.4806 64.5629 21.2589 66.4 27.3 66.4V65.4C21.4744 65.4 16.9861 63.6371 13.7669 60.1603L13.0331 60.8397ZM27.3 66.4C33.3245 66.4 37.8567 64.7051 40.7829 61.2216L40.0171 60.5784C37.3433 63.7615 33.1422 65.4 27.3 65.4V66.4ZM40.7823 61.2223C43.7385 57.7161 45.2 53.2618 45.2 47.9H44.2C44.2 53.0715 42.7949 57.2839 40.0177 60.5777L40.7823 61.2223ZM45.2 47.9V46.3H44.2V47.9H45.2ZM44.7 46.8H53V45.8H44.7V46.8ZM52.5 46.3V47.6H53.5V46.3H52.5ZM52.5 47.6C52.5 55.5038 50.2962 61.6668 45.9413 66.1517L46.6587 66.8483C51.2371 62.1332 53.5 55.6962 53.5 47.6H52.5ZM45.9387 66.1544C41.659 70.6286 35.473 72.9 27.3 72.9V73.9C35.6603 73.9 42.141 71.5714 46.6613 66.8456L45.9387 66.1544ZM71.5602 66.2L71.209 66.556L71.2139 66.5607L71.5602 66.2ZM71.5602 7.9L71.9088 8.25836L71.9089 8.2583L71.5602 7.9ZM111.56 7.9L111.209 8.25598L111.214 8.26069L111.56 7.9ZM111.56 66.2L111.909 66.5584L111.909 66.5583L111.56 66.2ZM105.66 60.5L106.027 60.8397L106.03 60.8363L105.66 60.5ZM105.66 13.6L105.29 13.9363L105.293 13.9397L105.66 13.6ZM77.5602 13.6L77.9271 13.9397L77.9301 13.9363L77.5602 13.6ZM77.5602 60.5L77.1902 60.8364L77.1933 60.8397L77.5602 60.5ZM91.5602 72.9C83.3281 72.9 76.795 70.5324 71.9064 65.8393L71.2139 66.5607C76.3253 71.4676 83.1255 73.9 91.5602 73.9V72.9ZM71.9113 65.844C67.102 61.0997 64.6602 54.1795 64.6602 45H63.6602C63.6602 54.3538 66.1517 61.567 71.209 66.556L71.9113 65.844ZM64.6602 45V29H63.6602V45H64.6602ZM64.6602 29C64.6602 19.82 67.1021 12.9352 71.9088 8.25836L71.2115 7.54163C66.1515 12.4648 63.6602 19.6467 63.6602 29H64.6602ZM71.9089 8.2583C76.7978 3.49974 83.3301 1.1 91.5602 1.1V0.0999954C83.1236 0.0999954 76.3225 2.56692 71.2114 7.5417L71.9089 8.2583ZM91.5602 1.1C99.8584 1.1 106.388 3.50052 111.209 8.25595L111.911 7.54405C106.865 2.56614 100.062 0.0999954 91.5602 0.0999954V1.1ZM111.214 8.26069C116.086 12.9378 118.56 19.8218 118.56 29H119.56C119.56 19.6448 117.034 12.4622 111.906 7.5393L111.214 8.26069ZM118.56 29V45H119.56V29H118.56ZM118.56 45C118.56 54.1777 116.086 61.097 111.211 65.8417L111.909 66.5583C117.034 61.5696 119.56 54.3556 119.56 45H118.56ZM111.211 65.8416C106.391 70.5316 99.8603 72.9 91.5602 72.9V73.9C100.06 73.9 106.862 71.4684 111.909 66.5584L111.211 65.8416ZM91.5602 66.4C97.7308 66.4 102.577 64.5652 106.027 60.8397L105.293 60.1603C102.076 63.6348 97.5229 65.4 91.5602 65.4V66.4ZM106.03 60.8363C109.47 57.0524 111.16 51.8521 111.16 45.3H110.16C110.16 51.6812 108.517 56.6143 105.29 60.1637L106.03 60.8363ZM111.16 45.3V28.7H110.16V45.3H111.16ZM111.16 28.7C111.16 22.1484 109.47 16.979 106.027 13.2603L105.293 13.9397C108.517 17.421 110.16 22.3182 110.16 28.7H111.16ZM106.03 13.2637C102.581 9.46993 97.7336 7.59999 91.5602 7.59999V8.59999C97.5201 8.59999 102.072 10.3967 105.29 13.9363L106.03 13.2637ZM91.5602 7.59999C85.4515 7.59999 80.638 9.4711 77.1902 13.2637L77.9301 13.9363C81.149 10.3956 85.6688 8.59999 91.5602 8.59999V7.59999ZM77.1933 13.2603C73.75 16.979 72.0602 22.1484 72.0602 28.7H73.0602C73.0602 22.3182 74.7036 17.421 77.927 13.9397L77.1933 13.2603ZM72.0602 28.7V45.3H73.0602V28.7H72.0602ZM72.0602 45.3C72.0602 51.8521 73.7502 57.0524 77.1902 60.8363L77.9301 60.1637C74.7034 56.6143 73.0602 51.6812 73.0602 45.3H72.0602ZM77.1933 60.8397C80.6418 64.5641 85.4543 66.4 91.5602 66.4V65.4C85.666 65.4 81.1452 63.6359 77.927 60.1603L77.1933 60.8397ZM133.055 72H132.555V72.5H133.055V72ZM133.055 2V1.5H132.555V2H133.055ZM176.155 2H176.655V1.5H176.155V2ZM176.155 9.6V10.1H176.655V9.6H176.155ZM141.455 9.6V9.1H140.955V9.6H141.455ZM141.455 33H140.955V33.5H141.455V33ZM173.355 33H173.855V32.5H173.355V33ZM173.355 40.6V41.1H173.855V40.6H173.355ZM141.455 40.6V40.1H140.955V40.6H141.455ZM141.455 64.4H140.955V64.9H141.455V64.4ZM176.655 64.4H177.155V63.9H176.655V64.4ZM176.655 72V72.5H177.155V72H176.655ZM133.555 72V2H132.555V72H133.555ZM133.055 2.5H176.155V1.5H133.055V2.5ZM175.655 2V9.6H176.655V2H175.655ZM176.155 9.1H141.455V10.1H176.155V9.1ZM140.955 9.6V33H141.955V9.6H140.955ZM141.455 33.5H173.355V32.5H141.455V33.5ZM172.855 33V40.6H173.855V33H172.855ZM173.355 40.1H141.455V41.1H173.355V40.1ZM140.955 40.6V64.4H141.955V40.6H140.955ZM141.455 64.9H176.655V63.9H141.455V64.9ZM176.155 64.4V72H177.155V64.4H176.155ZM176.655 71.5H133.055V72.5H176.655V71.5Z" fill="#FCB00B"/>
</svg>
