<svg width="225" height="264" viewBox="0 0 225 264" fill="none" xmlns="http://www.w3.org/2000/svg">
<mask id="mask0_105_70" style="mask-type:alpha" maskUnits="userSpaceOnUse" x="0" y="0" width="225" height="264">
<rect width="225" height="264" fill="#D9D9D9"/>
</mask>
<g mask="url(#mask0_105_70)">
<g opacity="0.25">
<path d="M225.426 161.489C349.926 161.489 450.852 136.656 450.852 106.021C450.852 75.3872 349.926 50.5533 225.426 50.5533C100.927 50.5533 0 75.3872 0 106.021C0 136.656 100.927 161.489 225.426 161.489Z" stroke="#FCB00B" stroke-width="2"/>
<path d="M225.426 178.34C349.926 178.34 450.852 153.507 450.852 122.872C450.852 92.2381 349.926 67.4042 225.426 67.4042C100.927 67.4042 0 92.2381 0 122.872C0 153.507 100.927 178.34 225.426 178.34Z" stroke="#FCB00B" stroke-width="2"/>
<path d="M225.426 196.596C349.926 196.596 450.852 171.762 450.852 141.128C450.852 110.494 349.926 85.6596 225.426 85.6596C100.927 85.6596 0 110.494 0 141.128C0 171.762 100.927 196.596 225.426 196.596Z" stroke="#FCB00B" stroke-width="2"/>
<path d="M225.426 213.447C349.926 213.447 450.852 188.613 450.852 157.979C450.852 127.345 349.926 102.511 225.426 102.511C100.927 102.511 0 127.345 0 157.979C0 188.613 100.927 213.447 225.426 213.447Z" stroke="#FCB00B" stroke-width="2"/>
<path d="M225.426 230.298C349.926 230.298 450.852 205.464 450.852 174.83C450.852 144.196 349.926 119.362 225.426 119.362C100.927 119.362 0 144.196 0 174.83C0 205.464 100.927 230.298 225.426 230.298Z" stroke="#FCB00B" stroke-width="2"/>
</g>
</g>
</svg>
