<svg width="225" height="264" viewBox="0 0 225 264" fill="none" xmlns="http://www.w3.org/2000/svg">
<mask id="mask0_105_71" style="mask-type:alpha" maskUnits="userSpaceOnUse" x="0" y="0" width="225" height="264">
<rect width="225" height="264" transform="matrix(-1 0 0 1 225 0)" fill="#D9D9D9"/>
</mask>
<g mask="url(#mask0_105_71)">
<g opacity="0.25">
<path d="M-0.426132 161.489C-124.926 161.489 -225.852 136.656 -225.852 106.021C-225.852 75.3872 -124.926 50.5533 -0.426132 50.5533C124.073 50.5533 225 75.3872 225 106.021C225 136.656 124.073 161.489 -0.426132 161.489Z" stroke="#FCB00B" stroke-width="2"/>
<path d="M-0.426132 178.34C-124.926 178.34 -225.852 153.506 -225.852 122.872C-225.852 92.2381 -124.926 67.4042 -0.426132 67.4042C124.073 67.4042 225 92.2381 225 122.872C225 153.506 124.073 178.34 -0.426132 178.34Z" stroke="#FCB00B" stroke-width="2"/>
<path d="M-0.426132 196.596C-124.926 196.596 -225.852 171.762 -225.852 141.128C-225.852 110.493 -124.926 85.6595 -0.426132 85.6595C124.073 85.6595 225 110.493 225 141.128C225 171.762 124.073 196.596 -0.426132 196.596Z" stroke="#FCB00B" stroke-width="2"/>
<path d="M-0.426132 213.447C-124.926 213.447 -225.852 188.613 -225.852 157.979C-225.852 127.345 -124.926 102.511 -0.426132 102.511C124.073 102.511 225 127.345 225 157.979C225 188.613 124.073 213.447 -0.426132 213.447Z" stroke="#FCB00B" stroke-width="2"/>
<path d="M-0.426132 230.298C-124.926 230.298 -225.852 205.464 -225.852 174.83C-225.852 144.196 -124.926 119.362 -0.426132 119.362C124.073 119.362 225 144.196 225 174.83C225 205.464 124.073 230.298 -0.426132 230.298Z" stroke="#FCB00B" stroke-width="2"/>
</g>
</g>
</svg>
